<?xml version="1.0" encoding="UTF-8" standalone="no"?>
<!-- Created with Inkscape (http://www.inkscape.org/) -->

<svg
   xmlns:dc="http://purl.org/dc/elements/1.1/"
   xmlns:cc="http://creativecommons.org/ns#"
   xmlns:rdf="http://www.w3.org/1999/02/22-rdf-syntax-ns#"
   xmlns:svg="http://www.w3.org/2000/svg"
   xmlns="http://www.w3.org/2000/svg"
   xmlns:sodipodi="http://sodipodi.sourceforge.net/DTD/sodipodi-0.dtd"
   xmlns:inkscape="http://www.inkscape.org/namespaces/inkscape"
   width="174.20393mm"
   height="106.12768mm"
   viewBox="0 0 617.25804 376.04296"
   id="svg2"
   version="1.1"
   inkscape:version="0.91 r13725"
   sodipodi:docname="New document 1.2017_04_17_14_26_55.0.svg"
   inkscape:export-filename="/home/arthur/New document 1.2017_04_17_14_26_55.0.png"
   inkscape:export-xdpi="1200"
   inkscape:export-ydpi="1200">
  <defs
     id="defs4" />
  <sodipodi:namedview
     id="base"
     pagecolor="#ffffff"
     bordercolor="#666666"
     borderopacity="1.0"
     inkscape:pageopacity="0.0"
     inkscape:pageshadow="2"
     inkscape:zoom="1.4"
     inkscape:cx="279.85352"
     inkscape:cy="235.66758"
     inkscape:document-units="px"
     inkscape:current-layer="layer1"
     showgrid="false"
     inkscape:window-width="1535"
     inkscape:window-height="876"
     inkscape:window-x="65"
     inkscape:window-y="24"
     inkscape:window-maximized="1"
     fit-margin-top="20"
     fit-margin-right="1"
     fit-margin-bottom="20"
     fit-margin-left="1" />
  <metadata
     id="metadata7">
    <rdf:RDF>
      <cc:Work
         rdf:about="">
        <dc:format>image/svg+xml</dc:format>
        <dc:type
           rdf:resource="http://purl.org/dc/dcmitype/StillImage" />
        <dc:title />
      </cc:Work>
    </rdf:RDF>
  </metadata>
  <g
     inkscape:groupmode="layer"
     id="layer5"
     inkscape:label="White Background">
    <rect
       transform="translate(-70.751633,-309.37304)"
       style="display:inline;fill:#ffffff;fill-opacity:1;stroke:#ffffff;stroke-width:18.33740234;stroke-miterlimit:4;stroke-dasharray:none;stroke-opacity:1"
       id="rect4415"
       width="598.92065"
       height="357.70563"
       x="79.920326"
       y="318.54172" />
  </g>
  <g
     inkscape:label="Drawing"
     inkscape:groupmode="layer"
     id="layer1"
     style="display:inline"
     transform="translate(-70.751633,-309.37304)">
    <path
       style="fill:none;fill-opacity:1;stroke:#000000;stroke-width:2.55999637;stroke-miterlimit:4;stroke-dasharray:none;stroke-opacity:1"
       d="m 539.54451,535.07679 c 29.66916,7.77572 61.26685,0.68945 84.77383,-19.01189 23.4788,-19.77126 35.909,-49.70256 33.34416,-80.28975 m -70.35765,-83.58652 c -29.66916,-7.77574 -61.26684,-0.68946 -84.77383,19.01189 -23.47925,19.77139 -35.91001,49.7029 -33.3451,80.29055"
       id="path3500"
       inkscape:connector-curvature="0"
       sodipodi:nodetypes="cccccc" />
    <path
       sodipodi:nodetypes="cccccc"
       inkscape:connector-curvature="0"
       id="path4316"
       d="m 544.32041,516.78804 c 23.73537,6.22062 49.01349,0.55156 67.81912,-15.20948 18.78317,-15.81686 28.7272,-39.76207 26.6753,-64.23187 m -56.28609,-66.8692 c -23.73535,-6.22059 -49.0135,-0.55155 -67.8191,15.20952 -18.78343,15.81708 -28.72801,39.76234 -26.67609,64.23247"
       style="fill:none;fill-opacity:1;stroke:#000000;stroke-width:2.04799795;stroke-miterlimit:4;stroke-dasharray:none;stroke-opacity:1" />
    <path
       sodipodi:nodetypes="cccccc"
       inkscape:connector-curvature="0"
       id="path4320"
       d="m 549.09641,498.4993 c 17.8015,4.66543 36.76011,0.41368 50.8643,-11.40713 14.08728,-11.86275 21.5454,-29.82153 20.00649,-48.17386 m -42.21462,-50.15188 c -17.8015,-4.66544 -36.76011,-0.41367 -50.8643,11.40714 -14.08755,11.86285 -21.546,29.82174 -20.00707,48.17433"
       style="fill:none;fill-opacity:1;stroke:#000000;stroke-width:1.53599787;stroke-miterlimit:4;stroke-dasharray:none;stroke-opacity:1" />
    <text
       xml:space="preserve"
       style="font-style:normal;font-variant:normal;font-weight:normal;font-stretch:normal;font-size:215.67062378px;line-height:125%;font-family:'Abyssinica SIL';-inkscape-font-specification:'Abyssinica SIL, Normal';text-align:start;letter-spacing:0px;word-spacing:0px;writing-mode:lr-tb;text-anchor:start;fill:#000000;fill-opacity:1;stroke:none;stroke-width:1px;stroke-linecap:butt;stroke-linejoin:miter;stroke-opacity:1"
       x="182.05508"
       y="582.17584"
       id="text3399"
       sodipodi:linespacing="125%"><tspan
         sodipodi:role="line"
         id="tspan3401"
         x="182.05508"
         y="582.17584">I</tspan></text>
    <path
       style="fill:none;fill-rule:evenodd;stroke:#496681;stroke-width:6.52356529;stroke-linecap:butt;stroke-linejoin:miter;stroke-miterlimit:4;stroke-dasharray:none;stroke-opacity:1"
       d="m 594.7107,471.97401 0,-53.42002 -62.573,0 0,49.92525 44.2671,0 0,-27.12604 -29.4559,0"
       id="path3415"
       inkscape:connector-curvature="0"
       sodipodi:nodetypes="ccccccc" />
    <g
       id="g3440"
       transform="translate(0,-6.0000008)">
      <path
         sodipodi:nodetypes="zcssszcczzzzcz"
         inkscape:connector-curvature="0"
         id="path3560"
         d="m 520.59762,598.38025 c 5.28072,10.46477 12.46044,8.72348 12.46044,8.72348 0,0 -70.81956,19.90373 -137.27832,30.1543 -66.45876,10.25057 -138.22609,12.22914 -184.01366,4.50979 C 122.4013,626.70176 98.709495,563.46363 100.03965,523.43204 c 1.93011,-58.08761 48.39233,-81.21742 85.20995,-93.52577 36.81762,-12.30835 91.75922,-16.6979 91.75922,-16.6979 l -0.40514,3.9267 c 0,0 -50.94898,6.31869 -84.23107,18.62705 -33.28209,12.30836 -72.78317,29.51961 -77.27666,80.30713 -4.49349,50.78752 37.73598,88.98943 87.88326,97.47972 50.14728,8.49029 139.61237,2.67443 188.39346,-7.07107 48.78109,-9.7455 128.18836,-31.17489 128.18836,-31.17489 0,0 -4.24413,12.61246 1.03659,23.07724 z"
         style="display:inline;fill:#496681;fill-opacity:1;fill-rule:evenodd;stroke:#000000;stroke-width:1px;stroke-linecap:butt;stroke-linejoin:miter;stroke-opacity:1" />
      <path
         inkscape:connector-curvature="0"
         id="path3570"
         d="m 532.68516,601.8017 64.55186,-16.26339"
         style="display:inline;fill:none;fill-rule:evenodd;stroke:#496681;stroke-width:4;stroke-linecap:round;stroke-linejoin:miter;stroke-miterlimit:4;stroke-dasharray:none;stroke-opacity:1" />
      <ellipse
         transform="matrix(0.99889903,0.04691201,-0.04691201,0.99889903,0,0)"
         ry="2.0982144"
         rx="2.1205356"
         cy="545.04712"
         cx="631.71155"
         id="path4382-2-7-06"
         style="display:inline;fill:#496681;fill-opacity:1;stroke:none;stroke-width:4;stroke-linecap:round;stroke-miterlimit:4;stroke-dasharray:none;stroke-opacity:1" />
      <path
         inkscape:connector-curvature="0"
         id="path3562"
         d="m 522.86882,577.9023 64.35192,-21.53021"
         style="display:inline;fill:none;fill-rule:evenodd;stroke:#496681;stroke-width:4;stroke-linecap:round;stroke-linejoin:miter;stroke-miterlimit:4;stroke-dasharray:none;stroke-opacity:1" />
      <path
         sodipodi:nodetypes="cc"
         inkscape:connector-curvature="0"
         id="path3564"
         d="m 522.24312,585.05088 63.93019,-20.46983"
         style="display:inline;fill:none;fill-rule:evenodd;stroke:#496681;stroke-width:4;stroke-linecap:round;stroke-linejoin:miter;stroke-miterlimit:4;stroke-dasharray:none;stroke-opacity:1" />
      <path
         inkscape:connector-curvature="0"
         id="path3566"
         d="m 522.47896,591.16926 64.34798,-18.97302"
         style="display:inline;fill:none;fill-rule:evenodd;stroke:#496681;stroke-width:4;stroke-linecap:round;stroke-linejoin:miter;stroke-miterlimit:4;stroke-dasharray:none;stroke-opacity:1" />
      <path
         sodipodi:nodetypes="cc"
         inkscape:connector-curvature="0"
         id="path3568"
         d="m 524.97618,597.48381 66.10893,-18.50256"
         style="display:inline;fill:none;fill-rule:evenodd;stroke:#496681;stroke-width:4;stroke-linecap:round;stroke-linejoin:miter;stroke-miterlimit:4;stroke-dasharray:none;stroke-opacity:1" />
      <ellipse
         transform="matrix(0.99889903,0.04691201,-0.04691201,0.99889903,0,0)"
         ry="2.0982144"
         rx="2.1205356"
         cy="528.1817"
         cx="620.03705"
         id="path4382"
         style="display:inline;fill:#496681;fill-opacity:1;stroke:none;stroke-width:4;stroke-linecap:round;stroke-miterlimit:4;stroke-dasharray:none;stroke-opacity:1" />
      <ellipse
         transform="matrix(0.99889903,0.04691201,-0.04691201,0.99889903,0,0)"
         ry="2.0982144"
         rx="2.1205356"
         cy="534.48663"
         cx="617.11554"
         id="path4382-2"
         style="display:inline;fill:#496681;fill-opacity:1;stroke:none;stroke-width:4;stroke-linecap:round;stroke-miterlimit:4;stroke-dasharray:none;stroke-opacity:1" />
      <ellipse
         transform="matrix(0.99889903,0.04691201,-0.04691201,0.99889903,0,0)"
         ry="2.0982144"
         rx="2.1205356"
         cy="531.71112"
         cx="626.02747"
         id="path4382-2-7"
         style="display:inline;fill:#496681;fill-opacity:1;stroke:none;stroke-width:4;stroke-linecap:round;stroke-miterlimit:4;stroke-dasharray:none;stroke-opacity:1" />
      <ellipse
         transform="matrix(0.99889903,0.04691201,-0.04691201,0.99889903,0,0)"
         ry="2.0982144"
         rx="2.1205356"
         cy="542.34375"
         cx="619.74939"
         id="path4382-2-7-0"
         style="display:inline;fill:#496681;fill-opacity:1;stroke:none;stroke-width:4;stroke-linecap:round;stroke-miterlimit:4;stroke-dasharray:none;stroke-opacity:1" />
      <ellipse
         transform="matrix(0.99889903,0.04691201,-0.04691201,0.99889903,0,0)"
         ry="2.0982144"
         rx="2.1205356"
         cy="538.47644"
         cx="624.40131"
         id="path4382-2-7-9"
         style="display:inline;fill:#496681;fill-opacity:1;stroke:none;stroke-width:4;stroke-linecap:round;stroke-miterlimit:4;stroke-dasharray:none;stroke-opacity:1" />
      <ellipse
         transform="matrix(0.99889903,0.04691201,-0.04691201,0.99889903,0,0)"
         ry="2.0982144"
         rx="2.1205356"
         cy="537.0376"
         cx="630.76355"
         id="path4382-2-7-3"
         style="display:inline;fill:#496681;fill-opacity:1;stroke:none;stroke-width:4;stroke-linecap:round;stroke-miterlimit:4;stroke-dasharray:none;stroke-opacity:1" />
      <ellipse
         transform="matrix(0.99889903,0.04691201,-0.04691201,0.99889903,0,0)"
         ry="2.0982144"
         rx="2.1205356"
         cy="549.64899"
         cx="624.26715"
         id="path4382-2-7-6"
         style="display:inline;fill:#496681;fill-opacity:1;stroke:none;stroke-width:4;stroke-linecap:round;stroke-miterlimit:4;stroke-dasharray:none;stroke-opacity:1" />
      <ellipse
         transform="matrix(0.99889903,0.04691201,-0.04691201,0.99889903,0,0)"
         ry="2.0982144"
         rx="2.1205356"
         cy="552.24445"
         cx="630.32257"
         id="path4382-2-7-2"
         style="display:inline;fill:#496681;fill-opacity:1;stroke:none;stroke-width:4;stroke-linecap:round;stroke-miterlimit:4;stroke-dasharray:none;stroke-opacity:1" />
      <ellipse
         transform="matrix(0.99889903,0.04691201,-0.04691201,0.99889903,0,0)"
         ry="2.0982144"
         rx="2.1205356"
         cy="543.98041"
         cx="626.52185"
         id="path4382-2-7-6-3"
         style="display:inline;fill:#496681;fill-opacity:1;stroke:none;stroke-width:4;stroke-linecap:round;stroke-miterlimit:4;stroke-dasharray:none;stroke-opacity:1" />
    </g>
    <text
       xml:space="preserve"
       style="font-style:normal;font-weight:normal;font-size:40px;line-height:125%;font-family:sans-serif;letter-spacing:0px;word-spacing:0px;fill:#000000;fill-opacity:1;stroke:none;stroke-width:1px;stroke-linecap:butt;stroke-linejoin:miter;stroke-opacity:1"
       x="232.12488"
       y="499.38986"
       id="text3381"
       sodipodi:linespacing="125%"><tspan
         sodipodi:role="line"
         x="232.12488"
         y="499.38986"
         id="tspan3470">ENCONTRO DE</tspan><tspan
         sodipodi:role="line"
         x="232.12488"
         y="549.38983"
         id="tspan3474">RADIOMETRIA</tspan></text>
  </g>
</svg>
